HIERARCHY
ROOT Hips
{
	OFFSET 0.00000 0.00000 0.00000
	CHANNELS 6 Xposition Yposition Zposition Zrotation Yrotation Xrotation 
	JOINT LHipJoint
	{
		OFFSET 0 0 0
		CHANNELS 3 Zrotation Yrotation Xrotation
		JOINT LeftUpLeg
		{
			OFFSET 1.17584 -1.63585 1.00361
			CHANNELS 3 Zrotation Yrotation Xrotation
			JOINT LeftLeg
			{
				OFFSET 2.23889 -6.15131 0.00000
				CHANNELS 3 Zrotation Yrotation Xrotation
				JOINT LeftFoot
				{
					OFFSET 2.65161 -7.28525 0.00000
					CHANNELS 3 Zrotation Yrotation Xrotation
					JOINT LeftToeBase
					{
						OFFSET 0.24898 -0.68407 1.57235
						CHANNELS 3 Zrotation Yrotation Xrotation
						End Site
						{
							OFFSET 0.00000 -0.00000 0.85838
						}
					}
				}
			}
		}
	}
	JOINT RHipJoint
	{
		OFFSET 0 0 0
		CHANNELS 3 Zrotation Yrotation Xrotation
		JOINT RightUpLeg
		{
			OFFSET -1.15592 -1.63585 1.00361
			CHANNELS 3 Zrotation Yrotation Xrotation
			JOINT RightLeg
			{
				OFFSET -2.34071 -6.43104 0.00000
				CHANNELS 3 Zrotation Yrotation Xrotation
				JOINT RightFoot
				{
					OFFSET -2.59113 -7.11908 0.00000
					CHANNELS 3 Zrotation Yrotation Xrotation
					JOINT RightToeBase
					{
						OFFSET -0.17867 -0.49089 1.70981
						CHANNELS 3 Zrotation Yrotation Xrotation
						End Site
						{
							OFFSET -0.00000 -0.00000 0.89861
						}
					}
				}
			}
		}
	}
	JOINT LowerBack
	{
		OFFSET 0 0 0
		CHANNELS 3 Zrotation Yrotation Xrotation
		JOINT Spine
		{
			OFFSET -0.02255 1.90764 -0.16605
			CHANNELS 3 Zrotation Yrotation Xrotation
			JOINT Spine1
			{
				OFFSET -0.00365 1.92150 -0.04898
				CHANNELS 3 Zrotation Yrotation Xrotation
				JOINT Neck
				{
					OFFSET 0 0 0
					CHANNELS 3 Zrotation Yrotation Xrotation
					JOINT Neck1
					{
						OFFSET 0.00372 1.59170 0.08694
						CHANNELS 3 Zrotation Yrotation Xrotation
						JOINT Head
						{
							OFFSET 0.12558 1.58643 -0.08078
							CHANNELS 3 Zrotation Yrotation Xrotation
							End Site
							{
								OFFSET 0.04211 1.60835 -0.03803
							}
						}
					}
				}
				JOINT LeftShoulder
				{
					OFFSET 0 0 0
					CHANNELS 3 Zrotation Yrotation Xrotation
					JOINT LeftArm
					{
						OFFSET 3.69324 0.96316 0.19077
						CHANNELS 3 Zrotation Yrotation Xrotation
						JOINT LeftForeArm
						{
							OFFSET 4.87796 -0.00000 -0.00000
							CHANNELS 3 Zrotation Yrotation Xrotation
							JOINT LeftHand
							{
								OFFSET 3.23169 -0.00000 0.00000
								CHANNELS 3 Zrotation Yrotation Xrotation
								JOINT LeftFingerBase
								{
									OFFSET 0 0 0
									CHANNELS 3 Zrotation Yrotation Xrotation
									JOINT LeftHandIndex1
									{
										OFFSET 0.73132 -0.00000 0.00000
										CHANNELS 3 Zrotation Yrotation Xrotation
										End Site
										{
											OFFSET 0.58961 -0.00000 0.00000
										}
									}
								}
								JOINT LThumb
								{
									OFFSET 0 0 0
									CHANNELS 3 Zrotation Yrotation Xrotation
									End Site
									{
										OFFSET 0.59861 -0.00000 0.59861
									}
								}
							}
						}
					}
				}
				JOINT RightShoulder
				{
					OFFSET 0 0 0
					CHANNELS 3 Zrotation Yrotation Xrotation
					JOINT RightArm
					{
						OFFSET -3.66103 0.75145 0.08281
						CHANNELS 3 Zrotation Yrotation Xrotation
						JOINT RightForeArm
						{
							OFFSET -4.91430 -0.00000 0.00000
							CHANNELS 3 Zrotation Yrotation Xrotation
							JOINT RightHand
							{
								OFFSET -3.29093 -0.00000 0.00000
								CHANNELS 3 Zrotation Yrotation Xrotation
								JOINT RightFingerBase
								{
									OFFSET 0 0 0
									CHANNELS 3 Zrotation Yrotation Xrotation
									JOINT RightHandIndex1
									{
										OFFSET -0.54512 -0.00000 0.00000
										CHANNELS 3 Zrotation Yrotation Xrotation
										End Site
										{
											OFFSET -0.43949 -0.00000 0.00000
										}
									}
								}
								JOINT RThumb
								{
									OFFSET 0 0 0
									CHANNELS 3 Zrotation Yrotation Xrotation
									End Site
									{
										OFFSET -0.44620 -0.00000 0.44620
									}
								}
							}
						}
					}
				}
			}
		}
	}
}
MOTION
Frames: 11
Frame Time: .0083333
21.7873 5.8588 -14.6021 -55.0507 146.7800 -151.0000 0.0000 0.0000 0.0000 13.4098 33.8192 16.7923 26.5620 18.9346 109.5194 0.3222 -13.0166 -12.8024 4.3201 -12.5746 -37.7962 0.0000 0.0000 0.0000 0.6036 25.5084 -9.4018 -31.5679 -16.4281 125.8954 -0.2375 2.3133 -8.6938 -3.0388 -10.7576 31.4667 -1.7294 -9.5692 -12.4249 9.5524 -12.0573 -6.2507 9.1619 -5.7286 2.7068 -8.2647 -8.0630 -17.4173 21.7159 -10.6767 3.5618 7.1989 -3.8738 5.7569 -0.0000 0.0000 0.0000 8.9508 -35.2797 -28.2690 131.9955 -52.1583 -95.4107 -0.0000 0.0000 -16.3084 69.1138 -47.5158 -62.6416 -7.1250 0.0000 -0.0000 11.3626 -41.0810 -16.1596 -0.0000 0.0000 0.0000 75.6380 19.1945 -36.5431 -150.8863 40.1215 -109.1661 0.0000 -0.0000 -14.3045 -137.6354 22.2110 -160.9783 7.1250 -0.0000 -0.0000 -171.8149 -0.1378 171.7103
21.7772 5.8777 -14.5894 -55.1139 146.8110 -150.9620 0.0000 0.0000 0.0000 12.7634 33.7835 16.6112 26.4279 18.9791 109.1066 0.2901 -12.7875 -12.3572 4.2652 -12.5051 -37.5432 0.0000 0.0000 0.0000 0.1266 25.2205 -9.6243 -31.5031 -16.4728 125.6666 -0.2322 2.5069 -8.5792 -3.2683 -11.1171 32.6760 -1.4676 -9.5929 -12.7667 9.5429 -12.1094 -6.3076 8.9529 -5.7509 2.7829 -8.0636 -7.9626 -17.4977 21.4959 -10.6120 3.8387 7.1003 -3.8343 5.8157 0.0000 0.0000 0.0000 11.0016 -36.5842 -28.7330 127.5188 -53.9485 -91.8319 -0.0000 0.0000 -16.3187 69.5202 -47.5961 -63.1700 -7.1250 0.0000 -0.0000 11.4724 -41.4279 -16.3226 0.0000 0.0000 0.0000 75.7663 19.3739 -36.3024 -150.9666 40.0504 -109.2178 0.0000 -0.0000 -14.1270 -137.7238 22.2135 -161.0311 7.1250 -0.0000 -0.0000 -171.8677 -0.1802 171.7588
21.7602 5.8998 -14.5774 -55.1801 146.9030 -150.7660 0.0000 0.0000 0.0000 11.8141 33.8161 16.1454 26.2718 19.0295 108.6272 0.2545 -12.4226 -11.7932 4.2344 -12.4660 -37.4011 0.0000 0.0000 0.0000 -0.5150 24.9868 -10.0541 -31.4331 -16.5208 125.4203 -0.2237 2.7457 -8.4077 -3.4805 -11.4350 33.7615 -1.0407 -9.5693 -13.3190 9.5158 -12.1156 -6.4100 8.6194 -5.7478 2.8764 -7.9744 -7.8720 -17.5442 21.3735 -10.5475 4.1083 7.0546 -3.7936 5.8812 -0.0000 0.0000 0.0000 13.6453 -38.2246 -29.5722 121.2577 -55.9654 -86.7033 -0.0000 0.0000 -15.9817 69.5552 -47.6923 -63.2482 -7.1250 0.0000 -0.0000 11.4206 -41.5200 -16.2489 -0.0000 0.0000 0.0000 75.8810 19.5255 -36.0943 -151.0552 39.9716 -109.2748 0.0000 -0.0000 -13.9500 -137.8001 22.1724 -161.1091 7.1250 -0.0000 -0.0000 -171.9037 -0.2666 171.7838
21.7486 5.9199 -14.5660 -55.1983 146.9900 -150.7150 0.0000 0.0000 0.0000 10.8947 33.7333 15.8133 26.0963 19.0846 108.0897 0.2109 -12.0286 -11.0993 4.1966 -12.4176 -37.2256 0.0000 0.0000 0.0000 -1.1271 24.6787 -10.2756 -31.3633 -16.5682 125.1748 -0.2158 3.0027 -8.2531 -3.6624 -11.6971 34.6686 -0.7069 -9.5314 -13.6634 9.4693 -12.0953 -6.4971 8.3512 -5.7329 2.8851 -8.0276 -7.8133 -17.5369 21.3511 -10.5026 4.3456 7.0653 -3.7636 5.9468 0.0000 -0.0000 0.0000 16.8981 -40.2123 -30.8274 112.8786 -57.9268 -79.6755 -0.0000 0.0000 -15.2698 69.3024 -47.8247 -62.9868 -7.1250 0.0000 -0.0000 11.2277 -41.4300 -15.9691 0.0000 -0.0000 0.0000 75.9550 19.6233 -36.0057 -151.1360 39.8996 -109.3266 0.0000 -0.0000 -13.8064 -137.8065 21.9595 -161.2733 7.1250 -0.0000 -0.0000 -171.8609 -0.5148 171.7043
21.7395 5.9375 -14.5562 -55.1886 147.0930 -150.7020 0.0000 0.0000 0.0000 9.9232 33.5892 15.4712 25.9067 19.1421 107.5108 0.1610 -11.5912 -10.2705 4.1218 -12.3208 -36.8764 0.0000 0.0000 0.0000 -1.7715 24.3530 -10.4580 -31.2984 -16.6118 124.9477 -0.2068 3.2832 -8.0841 -3.8135 -11.9080 35.4074 -0.3750 -9.4750 -13.9634 9.4048 -12.0521 -6.5805 8.0767 -5.7073 2.8668 -8.1798 -7.7788 -17.5066 21.3788 -10.4702 4.5507 7.1086 -3.7420 6.0099 0.0000 0.0000 0.0000 20.6611 -42.3800 -32.4806 102.4209 -59.4089 -70.7355 -0.0000 0.0000 -14.2392 68.9243 -48.0021 -62.5904 -7.1250 0.0000 -0.0000 10.9546 -41.2844 -15.5732 0.0000 0.0000 0.0000 75.9772 19.7105 -36.0380 -151.1844 39.8563 -109.3577 0.0000 -0.0000 -13.7166 -137.6899 21.5826 -161.4880 7.1250 -0.0000 -0.0000 -171.7098 -0.8895 171.4930
21.7319 5.9536 -14.5475 -55.1473 147.2130 -150.7020 0.0000 0.0000 0.0000 8.8892 33.3937 15.1085 25.6950 19.2039 106.8662 0.1047 -11.1045 -9.2731 3.9979 -12.1576 -36.2918 0.0000 0.0000 0.0000 -2.4564 24.0174 -10.6261 -31.2354 -16.6538 124.7276 -0.1957 3.5815 -7.8873 -3.9426 -12.0836 36.0285 -0.0615 -9.4412 -14.2500 9.3449 -12.0389 -6.6543 7.8124 -5.6973 2.8609 -8.3526 -7.7301 -17.4980 21.3952 -10.4126 4.7529 7.1548 -3.7098 6.0720 -0.0000 0.0000 0.0000 24.6527 -44.4417 -34.3521 90.5950 -59.9987 -60.5153 -0.0000 0.0000 -12.9651 68.6280 -48.1464 -62.2834 -7.1250 0.0000 -0.0000 10.7378 -41.1761 -15.2593 -0.0000 0.0000 0.0000 75.9482 19.8693 -36.1079 -151.1801 39.8601 -109.3549 0.0000 -0.0000 -13.6839 -137.4065 21.1291 -161.6651 7.1250 -0.0000 -0.0000 -171.4432 -1.2684 171.1575
21.7304 5.9699 -14.5370 -55.0864 147.3010 -150.9100 0.0000 0.0000 0.0000 8.0287 33.0768 15.0117 25.4428 19.2744 106.1009 0.0344 -10.6431 -7.9917 3.8179 -11.9141 -35.4288 0.0000 0.0000 0.0000 -3.0130 23.6177 -10.4991 -31.1655 -16.7000 124.4839 -0.1847 3.8527 -7.6976 -4.0570 -12.2358 36.5715 0.1036 -9.4630 -14.2803 9.3243 -12.0816 -6.6749 7.6901 -5.7169 2.8229 -8.5582 -7.6840 -17.5564 21.3634 -10.3480 4.9743 7.1907 -3.6748 6.1479 0.0000 0.0000 0.0000 28.4906 -46.2383 -36.1908 78.6392 -59.5066 -50.1775 -0.0000 0.0000 -11.4789 68.5582 -48.1811 -62.2114 -7.1250 0.0000 -0.0000 10.6864 -41.1514 -15.1849 0.0000 0.0000 0.0000 75.8427 20.1471 -36.2138 -151.1181 39.9155 -109.3152 0.0000 -0.0000 -13.6943 -136.9633 20.6595 -161.7668 7.1250 -0.0000 -0.0000 -171.0778 -1.5830 170.7227
21.7296 5.9907 -14.5218 -55.0581 147.3660 -151.2230 0.0000 0.0000 0.0000 7.2587 32.6818 15.0030 25.1378 19.3550 105.1787 -0.0511 -10.1955 -6.2761 3.5841 -11.5854 -34.2807 0.0000 0.0000 0.0000 -3.4537 23.1999 -10.2215 -31.0811 -16.7552 124.1909 -0.1710 4.0841 -7.4582 -4.1643 -12.3759 37.0750 0.2295 -9.5363 -14.2304 9.3519 -12.1859 -6.6733 7.6368 -5.7668 2.7930 -8.7332 -7.6217 -17.6599 21.2409 -10.2634 5.2365 7.1931 -3.6322 6.2317 -0.0000 0.0000 0.0000 31.8371 -47.6800 -37.7072 67.6351 -58.0230 -40.7600 -0.0000 0.0000 -9.7898 68.6705 -48.1312 -62.3293 -7.1250 0.0000 -0.0000 10.7652 -41.1957 -15.2989 -0.0000 0.0000 0.0000 75.7019 20.5490 -36.3001 -151.0066 40.0148 -109.2436 0.0000 -0.0000 -13.7217 -136.3925 20.2750 -161.7330 7.1250 -0.0000 -0.0000 -170.6543 -1.7285 170.2474
21.7278 6.0178 -14.5017 -55.0231 147.4320 -151.5690 0.0000 0.0000 0.0000 6.4666 32.2135 14.9859 24.7733 19.4447 104.0813 -0.1416 -9.7277 -4.0136 3.3178 -11.1926 -32.9323 0.0000 0.0000 0.0000 -3.8515 22.7885 -9.8541 -30.9796 -16.8208 123.8392 -0.1521 4.2931 -7.1091 -4.2706 -12.5120 37.5683 0.3205 -9.6544 -14.1854 9.4121 -12.3457 -6.6598 7.6236 -5.8438 2.8005 -8.8745 -7.5398 -17.8059 21.0299 -10.1564 5.5544 7.1627 -3.5804 6.3278 -0.0000 0.0000 0.0000 34.5737 -48.8044 -38.8117 57.9801 -55.7472 -32.6659 -0.0000 0.0000 -7.8715 68.8157 -47.9962 -62.4560 -7.1250 0.0000 -0.0000 10.9152 -41.2033 -15.5154 -0.0000 0.0000 0.0000 75.5566 21.0801 -36.3390 -150.8683 40.1374 -109.1545 0.0000 -0.0000 -13.7458 -135.7334 20.0527 -161.5195 7.1250 -0.0000 -0.0000 -170.2130 -1.6301 169.7900
21.7258 6.0514 -14.4752 -55.0020 147.4920 -151.9720 0.0000 0.0000 0.0000 5.7199 31.6564 14.9779 24.3498 19.5402 102.8124 -0.2166 -9.2424 -1.1270 3.0469 -10.7706 -31.5102 0.0000 0.0000 0.0000 -4.1702 22.3821 -9.3880 -30.8602 -16.8968 123.4278 -0.1264 4.4759 -6.6082 -4.3743 -12.6425 38.0447 0.3614 -9.8178 -14.1275 9.5110 -12.5603 -6.6305 7.6672 -5.9478 2.8450 -8.9974 -7.4419 -17.9899 20.7596 -10.0299 5.9200 7.1118 -3.5201 6.4367 -0.0000 0.0000 0.0000 36.7094 -49.6783 -39.5095 49.6505 -52.8536 -25.8953 -0.0000 0.0000 -5.7127 68.8181 -47.7706 -62.3753 -7.1250 0.0000 -0.0000 11.0703 -41.0485 -15.7370 -0.0000 0.0000 0.0000 75.4360 21.7362 -36.3138 -150.7097 40.2773 -109.0521 0.0000 -0.0000 -13.7647 -135.0480 19.9630 -161.1787 7.1250 -0.0000 -0.0000 -169.7857 -1.3505 169.3790
21.7234 6.0906 -14.4433 -54.9770 147.5630 -152.3700 0.0000 0.0000 0.0000 4.9663 31.0202 14.8964 23.8735 19.6364 101.3916 -0.2392 -8.6652 2.3998 2.7837 -10.3363 -30.0729 0.0000 0.0000 0.0000 -4.4684 21.9979 -8.9135 -30.7280 -16.9796 122.9740 -0.0932 4.6493 -5.9069 -4.4686 -12.7592 38.4735 0.3794 -10.0032 -14.1196 9.6165 -12.8024 -6.6089 7.7169 -6.0650 2.9186 -9.1212 -7.3420 -18.1460 20.4896 -9.8998 6.2915 7.0624 -3.4606 6.5429 -0.0000 -0.0000 0.0000 38.3815 -50.4319 -39.8792 42.4433 -49.4526 -20.2768 -0.0000 0.0000 -3.3761 68.4591 -47.5186 -61.8426 -7.1250 0.0000 -0.0000 11.0954 -40.6153 -15.7670 -0.0000 -0.0000 0.0000 75.3595 22.4560 -36.2684 -150.5548 40.4131 -108.9518 0.0000 -0.0000 -13.7822 -134.3267 20.0012 -160.7010 7.1250 -0.0000 -0.0000 -169.3665 -0.8857 169.0136
